<mxfile host="app.diagrams.net" agent="Mozilla/5.0 (Macintosh; Intel Mac OS X 10_15_7) AppleWebKit/537.36 (KHTML, like Gecko) Chrome/135.0.0.0 Safari/537.36" version="26.2.9">
  <diagram name="AWS Coupon Service" id="AWS1">
    <mxGraphModel grid="1" page="1" gridSize="10" guides="1" tooltips="1" connect="1" arrows="1" fold="1" pageScale="1" pageWidth="827" pageHeight="1169" math="0" shadow="0">
      <root>
        <mxCell id="0" />
        <mxCell id="1" parent="0" />
        <mxCell id="E1ec6j4kTec3xwaaDapS-15" style="edgeStyle=orthogonalEdgeStyle;rounded=0;orthogonalLoop=1;jettySize=auto;html=1;entryX=0;entryY=0.5;entryDx=0;entryDy=0;entryPerimeter=0;" edge="1" parent="1">
          <mxGeometry relative="1" as="geometry">
            <mxPoint x="158.15601477557846" y="269.5" as="sourcePoint" />
            <mxPoint x="280" y="269" as="targetPoint" />
          </mxGeometry>
        </mxCell>
        <mxCell id="E1ec6j4kTec3xwaaDapS-34" style="edgeStyle=orthogonalEdgeStyle;rounded=0;orthogonalLoop=1;jettySize=auto;html=1;exitX=0.5;exitY=1;exitDx=0;exitDy=0;exitPerimeter=0;" edge="1" parent="1" source="E1ec6j4kTec3xwaaDapS-41">
          <mxGeometry relative="1" as="geometry">
            <mxPoint x="684.5" y="430" as="targetPoint" />
            <mxPoint x="518.25" y="316" as="sourcePoint" />
            <Array as="points">
              <mxPoint x="518" y="430" />
            </Array>
          </mxGeometry>
        </mxCell>
        <mxCell id="E1ec6j4kTec3xwaaDapS-22" style="edgeStyle=orthogonalEdgeStyle;rounded=0;orthogonalLoop=1;jettySize=auto;html=1;entryX=0;entryY=0.5;entryDx=0;entryDy=0;entryPerimeter=0;" edge="1" parent="1">
          <mxGeometry relative="1" as="geometry">
            <mxPoint x="358" y="269.02857142857135" as="sourcePoint" />
            <mxPoint x="480" y="269.5" as="targetPoint" />
          </mxGeometry>
        </mxCell>
        <mxCell id="E1ec6j4kTec3xwaaDapS-28" style="edgeStyle=orthogonalEdgeStyle;rounded=0;orthogonalLoop=1;jettySize=auto;html=1;exitX=0.5;exitY=0;exitDx=0;exitDy=0;exitPerimeter=0;startArrow=classic;startFill=1;" edge="1" parent="1" source="E1ec6j4kTec3xwaaDapS-41" target="E1ec6j4kTec3xwaaDapS-27">
          <mxGeometry relative="1" as="geometry">
            <mxPoint x="518.25" y="223" as="sourcePoint" />
            <Array as="points">
              <mxPoint x="518" y="110" />
            </Array>
          </mxGeometry>
        </mxCell>
        <mxCell id="E1ec6j4kTec3xwaaDapS-24" style="edgeStyle=orthogonalEdgeStyle;rounded=0;orthogonalLoop=1;jettySize=auto;html=1;" edge="1" parent="1" target="E1ec6j4kTec3xwaaDapS-40">
          <mxGeometry relative="1" as="geometry">
            <mxPoint x="556.5" y="269" as="sourcePoint" />
            <mxPoint x="680" y="269" as="targetPoint" />
          </mxGeometry>
        </mxCell>
        <mxCell id="E1ec6j4kTec3xwaaDapS-27" value="Managed Streaming for&lt;div&gt;Apache Kafka&lt;div&gt;(MSK)&lt;/div&gt;&lt;/div&gt;" style="sketch=0;points=[[0,0,0],[0.25,0,0],[0.5,0,0],[0.75,0,0],[1,0,0],[0,1,0],[0.25,1,0],[0.5,1,0],[0.75,1,0],[1,1,0],[0,0.25,0],[0,0.5,0],[0,0.75,0],[1,0.25,0],[1,0.5,0],[1,0.75,0]];outlineConnect=0;fontColor=#232F3E;fillColor=#8C4FFF;strokeColor=#ffffff;dashed=0;verticalLabelPosition=bottom;verticalAlign=top;align=center;html=1;fontSize=12;fontStyle=0;aspect=fixed;shape=mxgraph.aws4.resourceIcon;resIcon=mxgraph.aws4.managed_streaming_for_kafka;" vertex="1" parent="1">
          <mxGeometry x="686" y="70" width="80" height="80" as="geometry" />
        </mxCell>
        <mxCell id="E1ec6j4kTec3xwaaDapS-31" value="Users&lt;div&gt;(Client)&lt;/div&gt;" style="sketch=0;outlineConnect=0;fontColor=#232F3E;gradientColor=none;fillColor=#232F3D;strokeColor=none;dashed=0;verticalLabelPosition=bottom;verticalAlign=top;align=center;html=1;fontSize=12;fontStyle=0;aspect=fixed;pointerEvents=1;shape=mxgraph.aws4.users;" vertex="1" parent="1">
          <mxGeometry x="80" y="228.5" width="78" height="78" as="geometry" />
        </mxCell>
        <mxCell id="E1ec6j4kTec3xwaaDapS-32" value="Auto Scaling group" style="points=[[0,0],[0.25,0],[0.5,0],[0.75,0],[1,0],[1,0.25],[1,0.5],[1,0.75],[1,1],[0.75,1],[0.5,1],[0.25,1],[0,1],[0,0.75],[0,0.5],[0,0.25]];outlineConnect=0;gradientColor=none;html=1;whiteSpace=wrap;fontSize=12;fontStyle=0;container=1;pointerEvents=0;collapsible=0;recursiveResize=0;shape=mxgraph.aws4.groupCenter;grIcon=mxgraph.aws4.group_auto_scaling_group;grStroke=1;strokeColor=#D86613;fillColor=none;verticalAlign=top;align=center;fontColor=#D86613;dashed=1;spacingTop=25;" vertex="1" parent="1">
          <mxGeometry x="399.13" y="160" width="238.25" height="238.25" as="geometry" />
        </mxCell>
        <mxCell id="E1ec6j4kTec3xwaaDapS-41" value="Coupon Service&lt;div&gt;(EC2)&lt;/div&gt;" style="sketch=0;points=[[0,0,0],[0.25,0,0],[0.5,0,0],[0.75,0,0],[1,0,0],[0,1,0],[0.25,1,0],[0.5,1,0],[0.75,1,0],[1,1,0],[0,0.25,0],[0,0.5,0],[0,0.75,0],[1,0.25,0],[1,0.5,0],[1,0.75,0]];outlineConnect=0;fontColor=#232F3E;fillColor=#ED7100;strokeColor=#ffffff;dashed=0;verticalLabelPosition=bottom;verticalAlign=top;align=center;html=1;fontSize=12;fontStyle=0;aspect=fixed;shape=mxgraph.aws4.resourceIcon;resIcon=mxgraph.aws4.ec2;" vertex="1" parent="E1ec6j4kTec3xwaaDapS-32">
          <mxGeometry x="80.12" y="68.5" width="78" height="78" as="geometry" />
        </mxCell>
        <mxCell id="E1ec6j4kTec3xwaaDapS-38" value="Application Load&lt;div&gt;Balancer&lt;/div&gt;" style="sketch=0;outlineConnect=0;fontColor=#232F3E;gradientColor=none;fillColor=#8C4FFF;strokeColor=none;dashed=0;verticalLabelPosition=bottom;verticalAlign=top;align=center;html=1;fontSize=12;fontStyle=0;aspect=fixed;pointerEvents=1;shape=mxgraph.aws4.application_load_balancer;" vertex="1" parent="1">
          <mxGeometry x="280" y="230" width="78" height="78" as="geometry" />
        </mxCell>
        <mxCell id="E1ec6j4kTec3xwaaDapS-39" value="ElastiCache&lt;div&gt;(Redis)&lt;/div&gt;" style="sketch=0;points=[[0,0,0],[0.25,0,0],[0.5,0,0],[0.75,0,0],[1,0,0],[0,1,0],[0.25,1,0],[0.5,1,0],[0.75,1,0],[1,1,0],[0,0.25,0],[0,0.5,0],[0,0.75,0],[1,0.25,0],[1,0.5,0],[1,0.75,0]];outlineConnect=0;fontColor=#232F3E;fillColor=#C925D1;strokeColor=#ffffff;dashed=0;verticalLabelPosition=bottom;verticalAlign=top;align=center;html=1;fontSize=12;fontStyle=0;aspect=fixed;shape=mxgraph.aws4.resourceIcon;resIcon=mxgraph.aws4.elasticache;" vertex="1" parent="1">
          <mxGeometry x="686" y="390" width="78" height="78" as="geometry" />
        </mxCell>
        <mxCell id="E1ec6j4kTec3xwaaDapS-40" value="PostgreSQL" style="sketch=0;outlineConnect=0;fontColor=#232F3E;gradientColor=none;fillColor=#C925D1;strokeColor=none;dashed=0;verticalLabelPosition=bottom;verticalAlign=top;align=center;html=1;fontSize=12;fontStyle=0;aspect=fixed;pointerEvents=1;shape=mxgraph.aws4.rds_postgresql_instance;" vertex="1" parent="1">
          <mxGeometry x="686" y="230" width="78" height="78" as="geometry" />
        </mxCell>
      </root>
    </mxGraphModel>
  </diagram>
</mxfile>
